<?xml version="1.0" encoding="utf-8"?>
<!-- Generator: Adobe Illustrator 16.0.0, SVG Export Plug-In . SVG Version: 6.00 Build 0)  -->
<!DOCTYPE svg PUBLIC "-//W3C//DTD SVG 1.1//EN" "http://www.w3.org/Graphics/SVG/1.1/DTD/svg11.dtd">
<svg version="1.1" id="圖層_1" xmlns="http://www.w3.org/2000/svg" xmlns:xlink="http://www.w3.org/1999/xlink" x="0px" y="0px"
	 width="358.07px" height="358.07px" viewBox="0 0 358.07 358.07" enable-background="new 0 0 358.07 358.07" xml:space="preserve">
<image display="none" overflow="visible" width="40" height="40" xlink:href="key3/images/icon_spm_video.png"  transform="matrix(8.9518 0 0 8.9518 -0.0078 0)">
</image>
<image display="none" overflow="visible" width="40" height="40" xlink:href="key3/images/icon_spm_video.png"  transform="matrix(2.7917 0 0 2.7917 183.1973 -403.5474)">
</image>
<path display="none" fill-rule="evenodd" clip-rule="evenodd" d="M962.742,249.912c-10.878,0.002-21.766,0.283-32.631-0.073
	c-12.697-0.416-22.557-7.619-25.492-18.333c-3.249-11.859,0.757-21.09,10.346-28.582c2.545-1.987,4.633-5.517,5.38-8.702
	c7.079-30.191,35.813-39.413,59.052-18.99c2.334,2.052,6.334,3.049,9.569,3.069c8.907,0.053,16.746,3.553,17.989,11.97
	c1.212,8.198,5.356,12.939,10.271,18.551c6.759,7.719,6.813,17.412,2.83,26.462c-4.355,9.889-13.203,14.113-23.56,14.527
	C985.262,250.26,973.995,249.912,962.742,249.912z M1002.773,200.883c2.236-13.598-3.675-18.424-21.494-14.598
	c-0.805-1.055-1.689-2.221-2.582-3.384c-8.008-10.426-18.163-15.401-31.389-12.002c-12.838,3.3-19.374,12.223-21.674,26.866
	c-0.54,3.439-4.276,6.86-7.324,9.321c-7.022,5.673-10.986,12.507-8.771,21.476c2.147,8.687,7.689,15.247,17.08,15.428
	c24.354,0.473,48.747,0.814,73.075-0.112c13.861-0.528,22.09-16.652,15.283-28.289
	C1012.033,210.552,1007.481,206.455,1002.773,200.883z"/>
<path display="none" fill-rule="evenodd" clip-rule="evenodd" d="M1000.487,253.703c-24.255,0-48.509,0-72.763,0
	c0-0.042,0-0.082-0.001-0.124c24.255,0,48.509,0,72.764,0C1000.487,253.621,1000.487,253.661,1000.487,253.703z"/>
<path display="none" fill-rule="evenodd" clip-rule="evenodd" fill="#FFFFFF" d="M1002.773,200.883
	c4.708,5.572,9.26,9.669,12.205,14.706c6.807,11.637-1.422,27.761-15.283,28.289c-24.328,0.927-48.722,0.585-73.075,0.112
	c-9.391-0.181-14.933-6.741-17.08-15.428c-2.216-8.969,1.748-15.803,8.771-21.476c3.048-2.461,6.784-5.882,7.324-9.321
	c2.3-14.644,8.836-23.566,21.674-26.866c13.226-3.399,23.381,1.576,31.389,12.002c0.893,1.163,1.777,2.329,2.582,3.384
	C999.099,182.459,1005.01,187.285,1002.773,200.883z"/>
<path display="none" fill-rule="evenodd" clip-rule="evenodd" fill="#C0C0C0" d="M1124.391-62.262
	c0-35.321,0.073-70.643-0.092-105.963c-0.021-4.421,0.913-6.181,5.712-5.906c8.443,0.483,7.361-0.82,7.364,7.633
	c0.027,70.142,0.025,140.284-0.037,210.426c-0.002,1.965,1.283,5.058-1.371,5.691c-3.464,0.827-7.353,1.132-10.771-0.271
	c-1.584-0.649-0.777-3.046-0.779-4.648C1124.383,9.047,1124.391-26.607,1124.391-62.262z"/>
<path display="none" fill-rule="evenodd" clip-rule="evenodd" fill="#51B1DC" d="M1033.811,48.29
	c-8.108,15.683-20.589,25.804-37.912,29.712c-4.228,0.954-8.537,1.316-12.872,1.316c-40.122-0.005-80.25,0.403-120.363-0.181
	c-21.792-0.317-38.942-10.143-48.361-30.403c-10.384-22.338-1.78-47.504,20.2-60.795c3.724-2.252,6.13-4.351,5.981-9.079
	c-0.096-3.075,1.066-6.188,1.665-9.285c7.825-21.133,22.058-36.212,43.695-42.693c27.63-8.275,52.729-3.083,73.655,17.655
	c2.565,2.544,4.851,3.292,8.307,2.727c20.549-3.357,45.452,11.571,44.95,37.239c-0.043,2.22,0.646,3.652,2.544,4.928
	C1033.525,1.678,1042.928,23.296,1033.811,48.29z"/>
<path display="none" fill-rule="evenodd" clip-rule="evenodd" fill="#F9FBFA" d="M920.06,76.346
	c-18.469-0.607-41.389,1.69-64.083-0.953c-19.336-2.252-33.403-13.048-40.049-31.748c-7.207-20.28,1.854-43.064,21.027-53.494
	c4.683-2.547,6.589-5.17,7.224-10.8c2.178-19.334,12.92-33.628,29.302-43.567c27.095-16.438,65.356-11.519,86.263,13.815
	c1.745,2.114,3.488,1.751,5.754,1.28c15.754-3.266,30.736,2.88,39.162,15.875c3.685,5.684,4.972,11.959,4.405,18.604
	c-0.229,2.669,0.679,4.189,2.924,5.665c17.593,11.558,25.177,29.606,20.78,48.991c-4.064,17.92-21.487,33.118-40.909,35.586
	c-12.285,1.561-24.636,0.515-36.954,0.712C944.741,76.476,934.572,76.346,920.06,76.346z"/>
<path display="none" fill-rule="evenodd" clip-rule="evenodd" fill="#57B4DE" d="M821.023-108.993
	c-4.665-3.02-6.296-5.585-6.124-11.508c0.587-20.144-19.96-34.524-40.573-28.99c-3.173,0.852-4.99,0.54-7.229-2.044
	c-16.886-19.494-38.32-26.084-63.304-21.108c-27.249,5.426-47.581,30.275-46.371,54.4c0.176,3.517-2.144,4.073-4.401,5.011
	c-13.542,5.628-26.58,20.521-25.743,40.241c0.858,20.206,17.974,38.468,38.291,40.15c3.166-0.702,6.329,0.064,9.495,0.064
	c41.528,0.01,83.058-0.233,124.586,0.083c16.773-0.663,33.453-14.112,38.372-30.94C842.985-80.612,836.395-99.044,821.023-108.993z
	 M794.869-42.879c-19.48,0.084-38.962,0.053-58.442,0.055c-21.313,0.004-42.627,0.106-63.938-0.066
	c-11.098-0.091-20.411-4.408-27.192-13.385c-12.279-16.255-6.15-39.032,12.602-47.141c1.831-0.792,3.659-1.862,5.58-2.122
	c5.854-0.789,6.25-4.538,5.843-9.289c-0.468-5.447-0.49-10.938,2.1-16.031c5.955-14.604,17.266-23.644,31.162-29.996
	c21.957-7.266,45.188,0.89,58.657,20.591c4.154,6.077,4.209,6.196,11.167,3.061c7.48-3.372,14.811-3.698,21.948,0.648
	c7.561,4.606,10.325,12.537,7.799,21.652c-2.105,7.592-2.103,7.585,5.095,10.788c11.652,5.187,19.014,13.605,20.406,26.693
	C829.63-58.853,813.148-42.958,794.869-42.879z"/>
<rect x="665.559" y="-36.356" display="none" fill-rule="evenodd" clip-rule="evenodd" fill="#57B4DE" width="136" height="3.663"/>
<rect x="860.558" y="76.356" display="none" fill-rule="evenodd" clip-rule="evenodd" fill="#57B4DE" width="123.667" height="3.087"/>
<image display="none" overflow="visible" width="40" height="40" xlink:href="key3/images/icon_spm_web.png"  transform="matrix(8.9517 0 0 8.9517 0 0)">
</image>
<g display="none">
	<path display="inline" fill-rule="evenodd" clip-rule="evenodd" fill="#DDDDDD" d="M248.674,127.649
		c-3.709-2.401-5.004-4.441-4.867-9.15c0.465-16.017-15.873-27.452-32.264-23.051c-2.521,0.677-3.967,0.43-5.746-1.625
		c-13.426-15.5-30.47-20.741-50.335-16.784c-21.667,4.314-37.833,24.073-36.871,43.255c0.14,2.796-1.704,3.239-3.5,3.984
		c-10.768,4.475-21.134,16.317-20.469,31.997c0.682,16.067,14.292,30.587,30.446,31.926c2.517-0.56,5.033,0.05,7.55,0.05
		c33.02,0.008,66.042-0.187,99.063,0.066c13.336-0.527,26.598-11.221,30.51-24.603C266.137,150.215,260.896,135.56,248.674,127.649z
		 M227.879,180.219c-15.49,0.066-30.98,0.042-46.47,0.042c-16.947,0.004-33.895,0.086-50.84-0.051
		c-8.824-0.073-16.229-3.505-21.622-10.644c-9.764-12.925-4.89-31.036,10.02-37.483c1.456-0.629,2.91-1.481,4.437-1.687
		c4.654-0.627,4.969-3.608,4.646-7.386c-0.372-4.331-0.39-8.696,1.669-12.747c4.735-11.613,13.728-18.8,24.778-23.851
		c17.459-5.777,35.932,0.707,46.641,16.372c3.303,4.832,3.346,4.927,8.879,2.434c5.947-2.681,11.777-2.94,17.451,0.516
		c6.012,3.663,8.211,9.969,6.203,17.217c-1.676,6.037-1.674,6.03,4.051,8.578c9.266,4.124,15.117,10.818,16.225,21.225
		C255.518,167.517,242.414,180.155,227.879,180.219z"/>
	
		<rect x="127.06" y="185.404" display="inline" fill-rule="evenodd" clip-rule="evenodd" fill="#DDDDDD" width="108.138" height="2.913"/>
</g>
<g>
	<path fill-rule="evenodd" clip-rule="evenodd" fill="#DDDDDD" d="M318.961,293.926c-5.035,0-10.068,0-15.748,0
		c0-19.047,0-37.63,0-56.211c-0.539-0.118-1.076-0.234-1.611-0.353c-2.572,7.407-5.209,14.792-7.703,22.224
		c-3.232,9.634-6.936,19.163-9.313,29.008c-1.605,6.648-5.904,5.736-10.299,5.62c-4.479-0.118-9.229,1.587-11.311-5.44
		c-4.934-16.655-10.828-33.027-16.389-49.496c-0.375-1.108-1.207-2.064-2.633-4.427c0,20.49,0,39.311,0,58.767
		c-4.758,0-9.668,0-15.059,0c0-25.921,0-51.739,0-78.03c8.176,0,15.84,0,23.814,0c6.578,19.522,13.143,39.004,19.705,58.488
		c0.57,0.075,1.139,0.15,1.709,0.226c6.604-19.538,13.209-39.078,20.014-59.214c8.264,0,16.543,0,24.822,0
		C318.961,241.366,318.961,267.646,318.961,293.926z"/>
	<path fill-rule="evenodd" clip-rule="evenodd" fill="#DDDDDD" d="M110.319,215.513c0,4.194,0,7.824,0,12.811
		c-9.649,0-19.168-0.026-28.686,0.013c-4.815,0.019-9.643-0.021-14.444,0.286c-6.778,0.435-11.224,3.59-10.988,11.016
		c0.229,7.214,5.528,8.535,11.181,8.729c8.023,0.277,16.068-0.05,24.091,0.235c18.177,0.652,25.068,8.837,22.909,26.863
		c-1.166,9.731-7.033,17.247-16.689,17.704c-18.092,0.854-36.255,0.245-54.946,0.245c0-3.806,0-7.623,0-12.35
		c5.605,0,10.895,0.001,16.183,0c8.032-0.002,16.064,0.068,24.095-0.024c10.428-0.119,14.557-2.943,14.553-9.743
		c-0.003-6.852-3.796-9.326-14.624-9.465c-7.763-0.1-15.549,0.209-23.284-0.291c-13.524-0.872-20.311-8.274-20.545-21.677
		c-0.263-15.049,5.801-23.432,19.663-24.145C75.784,214.847,92.861,215.513,110.319,215.513z"/>
	<path fill-rule="evenodd" clip-rule="evenodd" fill="#DDDDDD" d="M152.936,266.403c0,9.588,0,18.278,0,27.389
		c-5.562,0-10.233,0-15.464,0c0-26.192,0-51.948,0-77.544c17.654,0,34.979-0.829,52.177,0.301
		c10.92,0.716,17.598,11.439,17.625,24.206c0.025,12.782-5.947,21.744-16.965,23.883c-6.758,1.313-13.781,1.381-20.699,1.716
		C164.349,266.608,159.065,266.403,152.936,266.403z M153.284,252.272c9.084,0,17.852,0.433,26.55-0.151
		c5.824-0.393,8.717-4.715,9.096-10.458c0.367-5.565-1.191-10.958-7.12-11.817c-9.317-1.35-18.839-1.298-28.526-1.854
		C153.284,237.168,153.284,244.583,153.284,252.272z"/>
</g>
<path fill-rule="evenodd" clip-rule="evenodd" fill="#DDDDDD" d="M263.413,115.07c-0.029-9.152-0.951-18.244-2.58-27.265
	c-1.81-10.017-9.328-17.1-19.328-18.224c-13.295-1.497-26.655-1.935-40.005-2.136c-27.14-0.409-54.288-0.47-81.378,1.725
	c-13.927,1.127-20.438,6.909-23.089,20.541c-3.27,16.813-2.433,33.831-2.354,50.804c0.042,9.06,0.966,18.044,2.582,26.963
	c1.705,9.409,8.796,16.741,17.859,17.979c4.87,0.666,9.796,0.994,14.708,1.273c8.309,0.474,16.627,0.788,24.942,1.169
	c0.575,0.593,1.318,0.38,1.995,0.382c14.856,0.011,29.711,0.011,44.568,0c0.681,0,1.417,0.194,2.012-0.354
	c0.479-0.102,0.959-0.286,1.439-0.293c10.854-0.137,21.686-0.73,32.514-1.488c14.211-0.992,20.979-6.738,23.713-20.578
	C264.311,148.862,263.465,131.94,263.413,115.07z M210.902,133.682c-15.137,9.464-30.293,18.897-45.402,28.404
	c-2.454,1.544-4.838,2.447-7.583,0.921c-2.663-1.479-3.082-3.981-3.076-6.713c0.021-9.545,0.008-19.089,0.009-28.635
	c0-9.444,0.021-18.889-0.012-28.333c-0.01-2.931,0.302-5.647,3.252-7.218c2.813-1.499,5.174-0.37,7.574,1.138
	c15.024,9.438,30.076,18.833,45.12,28.24C216.897,125.31,216.948,129.903,210.902,133.682z"/>
</svg>
